# xmcd CD database file
#
# Track frame offsets:
#	150
#	20875
#	29650
#	43000
#	63812
#	87700
#	108850
#	131700
#	142937
#	153575
#	169262
#	187725
#	196862
#
# Disc length: 2755 seconds
#
# Revision: 0
# Processed by: cddbd v1.5.2PL0 Copyright (c) Steve Scherf et al.
# Submitted via: CDex 1.70beta2
#
DISCID=b20ac10d
DTITLE=Veikko Lavi - Syylliset ja syyttömät
DYEAR=1992
DGENRE=Kotimainen
TTITLE0=Suursaaren valtaus - Harri Saksala
TTITLE1=Turkan pappa - Veikko Lavi
TTITLE2=Pettynyt mies - Juice Leskinen
TTITLE3=Naisia sodan kurimuksessa - Anneli Saaristo
TTITLE4=Inhimillisyyden uhri - Jussi Raittinen
TTITLE5=Takarivin Taavi - S.E.X.
TTITLE6=Karjalaistytön laulu - Anneli Saaristo
TTITLE7=Jorma Sarvanto - J. Karjalainen
TTITLE8=Sotahevonen - Juice Leskinen
TTITLE9=Tiedustelulentäjän valssi - J. Karjalainen
TTITLE10=Viiden kypärän mies - Harri Saksala
TTITLE11=Sodan loppu - Miehet yhdessä
TTITLE12=Ykä lähti - Hector
EXTD=YEAR: 1992
EXTT0=
EXTT1=
EXTT2=
EXTT3=
EXTT4=
EXTT5=
EXTT6=
EXTT7=
EXTT8=
EXTT9=
EXTT10=
EXTT11=
EXTT12=
PLAYORDER=
